HIERARCHY
ROOT mixamorig:Hips
{
	OFFSET -0.000008 104.274872 1.554316
	CHANNELS 6 Xposition Yposition Zposition Xrotation Yrotation Zrotation
	JOINT mixamorig:Spine
	{
		OFFSET -0.000005 10.181595 0.131519
		CHANNELS 6 Xposition Yposition Zposition Xrotation Yrotation Zrotation
		JOINT mixamorig:Spine1
		{
			OFFSET -0.000000 9.893959 -1.470707
			CHANNELS 6 Xposition Yposition Zposition Xrotation Yrotation Zrotation
			JOINT mixamorig:Spine2
			{
				OFFSET -0.000000 9.220757 -1.370641
				CHANNELS 6 Xposition Yposition Zposition Xrotation Yrotation Zrotation
				JOINT mixamorig:Neck
				{
					OFFSET 0.000001 16.740417 -2.049036
					CHANNELS 6 Xposition Yposition Zposition Xrotation Yrotation Zrotation
					JOINT mixamorig:Head
					{
						OFFSET 0.000000 9.617874 1.685006
						CHANNELS 6 Xposition Yposition Zposition Xrotation Yrotation Zrotation
						JOINT mixamorig:HeadTop_End
						{
							OFFSET 0.000002 22.037354 7.501101
							CHANNELS 6 Xposition Yposition Zposition Xrotation Yrotation Zrotation
							End Site
							{
								OFFSET 0.000168 2310.654297 -282.823242
							}
						}
					}
				}
				JOINT mixamorig:RightShoulder
				{
					OFFSET -4.569970 11.014908 -2.160885
					CHANNELS 6 Xposition Yposition Zposition Xrotation Yrotation Zrotation
					JOINT mixamorig:RightArm
					{
						OFFSET -10.592851 -0.524811 -2.232101
						CHANNELS 6 Xposition Yposition Zposition Xrotation Yrotation Zrotation
						JOINT mixamorig:RightForeArm
						{
							OFFSET -27.841511 0.000031 -0.000004
							CHANNELS 6 Xposition Yposition Zposition Xrotation Yrotation Zrotation
							JOINT mixamorig:RightHand
							{
								OFFSET -28.328831 -0.000015 0.000015
								CHANNELS 6 Xposition Yposition Zposition Xrotation Yrotation Zrotation
								JOINT mixamorig:RightHandThumb1
								{
									OFFSET -2.464806 -1.573990 2.681852
									CHANNELS 6 Xposition Yposition Zposition Xrotation Yrotation Zrotation
									JOINT mixamorig:RightHandThumb2
									{
										OFFSET -3.215179 -1.872803 1.924282
										CHANNELS 6 Xposition Yposition Zposition Xrotation Yrotation Zrotation
										JOINT mixamorig:RightHandThumb3
										{
											OFFSET -2.654831 -1.527969 1.512609
											CHANNELS 6 Xposition Yposition Zposition Xrotation Yrotation Zrotation
											JOINT mixamorig:RightHandThumb4
											{
												OFFSET -2.018814 -1.152008 1.108052
												CHANNELS 6 Xposition Yposition Zposition Xrotation Yrotation Zrotation
												End Site
												{
													OFFSET -188.809540 -114.533607 132.431396
												}
											}
										}
									}
								}
								JOINT mixamorig:RightHandIndex1
								{
									OFFSET -9.108284 -0.517868 2.259835
									CHANNELS 6 Xposition Yposition Zposition Xrotation Yrotation Zrotation
									JOINT mixamorig:RightHandIndex2
									{
										OFFSET -3.699989 0.000000 0.001215
										CHANNELS 6 Xposition Yposition Zposition Xrotation Yrotation Zrotation
										JOINT mixamorig:RightHandIndex3
										{
											OFFSET -2.850006 0.000031 -0.000522
											CHANNELS 6 Xposition Yposition Zposition Xrotation Yrotation Zrotation
											JOINT mixamorig:RightHandIndex4
											{
												OFFSET -2.772186 -0.000015 -0.000020
												CHANNELS 6 Xposition Yposition Zposition Xrotation Yrotation Zrotation
												End Site
												{
													OFFSET -277.218445 0.000000 -0.050231
												}
											}
										}
									}
								}
								JOINT mixamorig:RightHandMiddle1
								{
									OFFSET -9.532516 -0.000031 -0.000023
									CHANNELS 6 Xposition Yposition Zposition Xrotation Yrotation Zrotation
									JOINT mixamorig:RightHandMiddle2
									{
										OFFSET -3.700005 -0.000015 0.003713
										CHANNELS 6 Xposition Yposition Zposition Xrotation Yrotation Zrotation
										JOINT mixamorig:RightHandMiddle3
										{
											OFFSET -2.949974 0.000015 -0.002054
											CHANNELS 6 Xposition Yposition Zposition Xrotation Yrotation Zrotation
											JOINT mixamorig:RightHandMiddle4
											{
												OFFSET -2.946640 0.000000 -0.000156
												CHANNELS 6 Xposition Yposition Zposition Xrotation Yrotation Zrotation
												End Site
												{
													OFFSET -294.664337 0.000000 -0.113670
												}
											}
										}
									}
								}
								JOINT mixamorig:RightHandRing1
								{
									OFFSET -9.103600 -0.043076 -1.865134
									CHANNELS 6 Xposition Yposition Zposition Xrotation Yrotation Zrotation
									JOINT mixamorig:RightHandRing2
									{
										OFFSET -3.379288 0.000000 -0.001055
										CHANNELS 6 Xposition Yposition Zposition Xrotation Yrotation Zrotation
										JOINT mixamorig:RightHandRing3
										{
											OFFSET -2.889687 -0.000015 0.000379
											CHANNELS 6 Xposition Yposition Zposition Xrotation Yrotation Zrotation
											JOINT mixamorig:RightHandRing4
											{
												OFFSET -2.638809 -0.000015 0.000941
												CHANNELS 6 Xposition Yposition Zposition Xrotation Yrotation Zrotation
												End Site
												{
													OFFSET -263.880371 0.000000 0.516020
												}
											}
										}
									}
								}
								JOINT mixamorig:RightHandPinky1
								{
									OFFSET -8.076683 -0.486710 -3.806280
									CHANNELS 6 Xposition Yposition Zposition Xrotation Yrotation Zrotation
									JOINT mixamorig:RightHandPinky2
									{
										OFFSET -3.600014 -0.000015 -0.003747
										CHANNELS 6 Xposition Yposition Zposition Xrotation Yrotation Zrotation
										JOINT mixamorig:RightHandPinky3
										{
											OFFSET -2.099983 0.000000 -0.005739
											CHANNELS 6 Xposition Yposition Zposition Xrotation Yrotation Zrotation
											JOINT mixamorig:RightHandPinky4
											{
												OFFSET -2.115768 -0.000031 -0.003680
												CHANNELS 6 Xposition Yposition Zposition Xrotation Yrotation Zrotation
												End Site
												{
													OFFSET -211.577087 0.000000 -0.350686
												}
											}
										}
									}
								}
							}
						}
					}
				}
				JOINT mixamorig:LeftShoulder
				{
					OFFSET 4.570447 11.014725 -2.160855
					CHANNELS 6 Xposition Yposition Zposition Xrotation Yrotation Zrotation
					JOINT mixamorig:LeftArm
					{
						OFFSET 10.592371 -0.524597 -2.232119
						CHANNELS 6 Xposition Yposition Zposition Xrotation Yrotation Zrotation
						JOINT mixamorig:LeftForeArm
						{
							OFFSET 27.841532 -0.000031 0.000026
							CHANNELS 6 Xposition Yposition Zposition Xrotation Yrotation Zrotation
							JOINT mixamorig:LeftHand
							{
								OFFSET 28.328846 -0.000061 0.000022
								CHANNELS 6 Xposition Yposition Zposition Xrotation Yrotation Zrotation
								JOINT mixamorig:LeftHandThumb1
								{
									OFFSET 2.466141 -1.576172 2.681732
									CHANNELS 6 Xposition Yposition Zposition Xrotation Yrotation Zrotation
									JOINT mixamorig:LeftHandThumb2
									{
										OFFSET 3.217812 -1.872070 1.916482
										CHANNELS 6 Xposition Yposition Zposition Xrotation Yrotation Zrotation
										JOINT mixamorig:LeftHandThumb3
										{
											OFFSET 2.656029 -1.528778 1.514513
											CHANNELS 6 Xposition Yposition Zposition Xrotation Yrotation Zrotation
											JOINT mixamorig:LeftHandThumb4
											{
												OFFSET 2.020889 -1.154053 1.115139
												CHANNELS 6 Xposition Yposition Zposition Xrotation Yrotation Zrotation
												End Site
												{
													OFFSET 190.885437 -115.081749 130.048782
												}
											}
										}
									}
								}
								JOINT mixamorig:LeftHandIndex1
								{
									OFFSET 9.109314 -0.518021 2.259871
									CHANNELS 6 Xposition Yposition Zposition Xrotation Yrotation Zrotation
									JOINT mixamorig:LeftHandIndex2
									{
										OFFSET 3.699989 0.000000 -0.000322
										CHANNELS 6 Xposition Yposition Zposition Xrotation Yrotation Zrotation
										JOINT mixamorig:LeftHandIndex3
										{
											OFFSET 2.850006 0.000000 0.000352
											CHANNELS 6 Xposition Yposition Zposition Xrotation Yrotation Zrotation
											JOINT mixamorig:LeftHandIndex4
											{
												OFFSET 2.774864 -0.000031 -0.000027
												CHANNELS 6 Xposition Yposition Zposition Xrotation Yrotation Zrotation
												End Site
												{
													OFFSET 277.486267 0.000000 -0.009857
												}
											}
										}
									}
								}
								JOINT mixamorig:LeftHandMiddle1
								{
									OFFSET 9.533394 0.000061 0.000044
									CHANNELS 6 Xposition Yposition Zposition Xrotation Yrotation Zrotation
									JOINT mixamorig:LeftHandMiddle2
									{
										OFFSET 3.699989 -0.000015 -0.000231
										CHANNELS 6 Xposition Yposition Zposition Xrotation Yrotation Zrotation
										JOINT mixamorig:LeftHandMiddle3
										{
											OFFSET 2.949997 -0.000015 -0.000059
											CHANNELS 6 Xposition Yposition Zposition Xrotation Yrotation Zrotation
											JOINT mixamorig:LeftHandMiddle4
											{
												OFFSET 2.952896 0.000031 0.000063
												CHANNELS 6 Xposition Yposition Zposition Xrotation Yrotation Zrotation
												End Site
												{
													OFFSET 295.289337 0.000000 0.022810
												}
											}
										}
									}
								}
								JOINT mixamorig:LeftHandRing1
								{
									OFFSET 9.104523 -0.042999 -1.865074
									CHANNELS 6 Xposition Yposition Zposition Xrotation Yrotation Zrotation
									JOINT mixamorig:LeftHandRing2
									{
										OFFSET 3.150009 -0.000031 0.000043
										CHANNELS 6 Xposition Yposition Zposition Xrotation Yrotation Zrotation
										JOINT mixamorig:LeftHandRing3
										{
											OFFSET 2.949982 -0.000015 0.000040
											CHANNELS 6 Xposition Yposition Zposition Xrotation Yrotation Zrotation
											JOINT mixamorig:LeftHandRing4
											{
												OFFSET 2.644348 0.000000 0.000057
												CHANNELS 6 Xposition Yposition Zposition Xrotation Yrotation Zrotation
												End Site
												{
													OFFSET 264.434631 0.000000 0.012105
												}
											}
										}
									}
								}
								JOINT mixamorig:LeftHandPinky1
								{
									OFFSET 8.077789 -0.486847 -3.806259
									CHANNELS 6 Xposition Yposition Zposition Xrotation Yrotation Zrotation
									JOINT mixamorig:LeftHandPinky2
									{
										OFFSET 3.599953 0.000031 0.014727
										CHANNELS 6 Xposition Yposition Zposition Xrotation Yrotation Zrotation
										JOINT mixamorig:LeftHandPinky3
										{
											OFFSET 2.100021 0.000015 0.007705
											CHANNELS 6 Xposition Yposition Zposition Xrotation Yrotation Zrotation
											JOINT mixamorig:LeftHandPinky4
											{
												OFFSET 2.125504 0.000031 0.007517
												CHANNELS 6 Xposition Yposition Zposition Xrotation Yrotation Zrotation
												End Site
												{
													OFFSET 212.550781 0.000000 0.625752
												}
											}
										}
									}
								}
							}
						}
					}
				}
			}
		}
	}
	JOINT mixamorig:RightUpLeg
	{
		OFFSET -8.207787 -6.751648 -1.599560
		CHANNELS 6 Xposition Yposition Zposition Xrotation Yrotation Zrotation
		JOINT mixamorig:RightLeg
		{
			OFFSET -0.000002 -44.370117 0.345942
			CHANNELS 6 Xposition Yposition Zposition Xrotation Yrotation Zrotation
			JOINT mixamorig:RightFoot
			{
				OFFSET 0.000003 -44.423679 -3.043532
				CHANNELS 6 Xposition Yposition Zposition Xrotation Yrotation Zrotation
				JOINT mixamorig:RightToeBase
				{
					OFFSET -0.000002 -8.728671 10.710558
					CHANNELS 6 Xposition Yposition Zposition Xrotation Yrotation Zrotation
					JOINT mixamorig:RightToe_End
					{
						OFFSET -0.000001 -0.000679 9.278119
						CHANNELS 6 Xposition Yposition Zposition Xrotation Yrotation Zrotation
						End Site
						{
							OFFSET 0.000000 -0.067690 927.812134
						}
					}
				}
			}
		}
	}
	JOINT mixamorig:LeftUpLeg
	{
		OFFSET 8.207793 -6.751686 -1.599556
		CHANNELS 6 Xposition Yposition Zposition Xrotation Yrotation Zrotation
		JOINT mixamorig:LeftLeg
		{
			OFFSET -0.000004 -44.370014 0.346954
			CHANNELS 6 Xposition Yposition Zposition Xrotation Yrotation Zrotation
			JOINT mixamorig:LeftFoot
			{
				OFFSET -0.000001 -44.423672 -3.044401
				CHANNELS 6 Xposition Yposition Zposition Xrotation Yrotation Zrotation
				JOINT mixamorig:LeftToeBase
				{
					OFFSET -0.000002 -8.728669 10.710558
					CHANNELS 6 Xposition Yposition Zposition Xrotation Yrotation Zrotation
					JOINT mixamorig:LeftToe_End
					{
						OFFSET -0.000003 -0.000679 9.278133
						CHANNELS 6 Xposition Yposition Zposition Xrotation Yrotation Zrotation
						End Site
						{
							OFFSET 0.000000 -0.068021 927.813477
						}
					}
				}
			}
		}
	}
}
MOTION
Frames: 3
Frame Time: 0.033333
0.000006 104.270477 1.554256 0.000010 0.000003 -0.000113 -0.000005 10.181587 0.131522 0.000001 -0.000003 0.000084 -0.000000 9.893967 -1.470711 0.000001 0.000000 -0.000000 -0.000000 9.220802 -1.370642 0.000000 -0.000000 -0.000000 0.000001 16.740433 -2.049030 0.000000 -0.000000 -0.000000 0.000000 9.617859 1.685014 0.000000 0.000000 0.000000 0.000002 22.037384 7.501101 0.000000 -0.000000 0.000000 -4.569968 11.014880 -2.160881 0.000008 0.000001 -0.000038 -10.592783 -0.524834 -2.231750 71.654114 65.865857 -50.124726 -27.841497 0.000023 0.000562 48.697678 101.400381 -57.876790 -28.328835 0.000022 0.000029 -0.000322 -0.000046 0.000006 -2.464892 -1.574084 2.682018 130.537483 -197.647629 166.670481 -3.215172 -1.872991 1.924423 297.239068 -1.258834 342.965300 -2.654826 -1.528232 1.512795 115.331856 185.553044 161.621277 -2.018827 -1.151996 1.108069 -0.000005 -0.000005 0.000002 -9.108326 -0.517915 2.260328 70.871580 154.359420 -144.509632 -3.700041 -0.000090 0.001691 251.656517 16.451614 22.628844 -2.850037 -0.000071 -0.000065 252.780247 10.830696 14.658318 -2.772164 -0.000014 -0.000023 -0.000001 -0.000000 0.000000 -9.532525 -0.000058 0.000506 231.829680 17.335273 34.963824 -3.700023 -0.000119 0.004204 249.256552 4.588699 6.535604 -2.950009 -0.000141 -0.001593 255.429022 6.558574 8.468375 -2.946638 0.000045 -0.000153 -0.000001 0.000000 -0.000001 -9.103615 -0.043086 -1.864587 53.135067 162.608554 -146.025606 -3.379277 -0.000183 -0.000602 251.832217 1.042197 1.459201 -2.889709 -0.000169 0.000775 263.102411 -1.513067 -1.659793 -2.638820 0.000001 0.000944 -0.000000 -0.000000 -0.000002 -8.076671 -0.486682 -3.805729 41.741588 166.371141 -145.379675 -3.599995 -0.000151 -0.003267 241.946447 1.145887 1.396818 -2.099986 -0.000196 -0.005341 256.698754 -0.166800 -0.466300 -2.115783 -0.000071 -0.003671 0.000000 0.000001 -0.000003 4.570446 11.014691 -2.160851 -0.000018 0.000010 -0.000021 10.592537 -0.524529 -2.232397 73.322648 -65.223737 50.930941 27.841759 -0.000050 -0.000137 70.588345 -97.288538 77.611993 28.328829 -0.000029 0.000025 0.000022 -0.000087 0.000001 2.466175 -1.576152 2.681880 137.431876 189.077709 -167.903235 3.217845 -1.871948 1.916583 305.757544 4.994468 14.950949 2.656056 -1.528751 1.514640 120.584381 168.109329 -162.575509 2.020895 -1.154037 1.115144 0.000003 0.000006 0.000004 9.109256 -0.517845 2.260125 85.021150 -161.405484 159.755529 3.699955 0.000219 -0.000070 69.972781 -170.057831 165.814822 2.849967 0.000254 0.000601 -109.900851 -9.054246 -12.878179 2.774878 -0.000031 -0.000029 -0.000000 -0.000002 0.000001 9.533320 0.000274 0.000296 -109.556159 -16.746227 -23.546480 3.699968 0.000255 0.000023 -112.093445 -8.147534 -12.073261 2.949945 0.000237 0.000188 -109.091228 -14.072223 -19.668776 2.952871 -0.000013 0.000067 -0.000000 -0.000000 0.000001 9.104473 -0.042788 -1.864832 -111.225990 -13.870843 -20.158434 3.149979 0.000283 0.000293 -106.066110 -7.582122 -10.064412 2.949938 0.000224 0.000317 -101.985345 -10.845207 -13.369778 2.644323 0.000017 0.000056 -0.000000 0.000000 0.000001 8.077693 -0.486614 -3.806007 -118.042294 -15.411811 -25.902605 3.599903 0.000257 0.014972 -108.756392 -9.819398 -14.141797 2.099957 0.000249 0.007972 -104.929464 -10.999962 -14.695504 2.125495 -0.000014 0.007520 -0.000001 -0.000001 0.000000 -8.207786 -6.751667 -1.599560 -0.077001 -0.000003 0.000080 -0.000002 -44.370110 0.345938 0.153719 -0.000000 -0.000000 0.000000 -44.423679 -3.043532 -0.076700 0.000000 -0.000002 -0.000006 -8.728667 10.710559 -0.000009 -0.000000 -0.000000 -0.000001 -0.000679 9.278123 0.000000 -0.000000 -0.000000 8.207792 -6.751710 -1.599556 -0.074518 -0.000003 0.000081 -0.000002 -44.370014 0.346960 0.148822 0.000002 0.000000 -0.000001 -44.423664 -3.044403 -0.074314 0.000000 -0.000002 -0.000004 -8.728671 10.710558 0.000007 -0.000000 -0.000000 0.000000 -0.000680 9.278137 -0.000000 0.000000 -0.000001 
0.000006 104.270477 1.554256 0.000010 0.000003 -0.000113 -0.000005 10.181587 0.131522 0.000001 -0.000003 0.000084 -0.000000 9.893967 -1.470711 0.000001 0.000000 -0.000000 -0.000000 9.220802 -1.370642 0.000000 -0.000000 -0.000000 0.000001 16.740433 -2.049030 0.000000 -0.000000 -0.000000 0.000000 9.617859 1.685014 0.000000 0.000000 0.000000 0.000002 22.037384 7.501101 0.000000 -0.000000 0.000000 -4.569968 11.014880 -2.160881 0.000008 0.000001 -0.000038 -10.592793 -0.524846 -2.231753 71.261829 63.974175 -48.231186 -27.841507 -0.000005 0.000553 34.102165 98.989563 -39.500377 -28.328831 0.000019 0.000024 -0.000323 -0.000045 0.000008 -2.464880 -1.574124 2.682051 123.496883 -196.810316 165.884354 -3.215206 -1.872957 1.924451 294.058878 4.625898 343.035487 -2.654851 -1.528233 1.512794 110.954381 181.084106 161.122769 -2.018827 -1.152008 1.108065 -0.000005 -0.000003 0.000002 -9.108296 -0.517885 2.260399 53.198479 140.353953 -108.502862 -3.700047 -0.000059 0.001692 253.798164 24.064259 31.686183 -2.850050 -0.000083 -0.000082 255.857056 15.457288 19.757739 -2.772163 -0.000000 -0.000018 -0.000000 0.000001 0.000003 -9.532393 0.000048 0.000591 204.948254 27.484126 95.684113 -3.700020 -0.000093 0.004191 246.353394 9.470407 14.343631 -2.950023 -0.000132 -0.001616 257.251343 10.930135 13.650126 -2.946637 0.000009 -0.000152 -0.000000 -0.000000 -0.000001 -9.103512 -0.042960 -1.864521 28.123948 153.303678 -93.095526 -3.379284 -0.000138 -0.000587 248.968318 4.658420 6.797750 -2.889710 -0.000168 0.000759 261.795140 0.067401 0.124937 -2.638815 0.000002 0.000945 0.000000 -0.000001 -0.000001 -8.076580 -0.486589 -3.805683 23.563111 160.759704 -101.849267 -3.600006 -0.000118 -0.003243 234.055939 2.381324 4.081590 -2.100010 -0.000189 -0.005317 250.736326 0.780977 0.820344 -2.115779 -0.000058 -0.003688 -0.000002 -0.000002 -0.000008 4.570446 11.014691 -2.160851 -0.000018 0.000010 -0.000021 10.592529 -0.524531 -2.232402 73.729706 -63.077480 49.425230 27.841759 -0.000043 -0.000139 59.868514 -94.577213 63.908851 28.328835 -0.000016 0.000028 0.000018 -0.000089 0.000002 2.466175 -1.576113 2.681875 146.630515 206.312066 -167.117776 3.217837 -1.871903 1.916623 307.745948 -17.510057 13.289597 2.656072 -1.528684 1.514652 109.953867 183.952595 -161.930453 2.020891 -1.154081 1.115140 0.000000 0.000003 0.000002 9.109205 -0.517925 2.260088 91.434766 -135.991839 136.980018 3.699874 0.000143 -0.000068 79.368567 -146.283910 139.871496 2.849935 0.000214 0.000605 -102.277896 -19.706656 -24.327681 2.774873 -0.000032 -0.000036 0.000001 0.000001 -0.000001 9.533268 0.000257 0.000288 -115.391948 -32.598659 -49.635900 3.699944 0.000252 0.000027 -109.027147 -12.783646 -17.857443 2.949975 0.000215 0.000176 -107.409916 -9.362135 -12.725932 2.952867 -0.000018 0.000058 0.000001 0.000002 0.000002 9.104394 -0.042773 -1.864835 -118.133203 -25.120041 -40.788285 3.149999 0.000235 0.000280 -105.139335 -1.633595 -2.136149 2.949996 0.000186 0.000259 -99.592368 2.476948 2.928672 2.644318 0.000017 0.000054 0.000001 0.000001 -0.000000 8.077672 -0.486586 -3.806023 -123.029998 -18.780604 -34.355169 3.600000 0.000219 0.014946 -106.433465 9.671722 12.263293 2.100047 0.000175 0.007900 -101.108731 10.956581 12.723521 2.125496 -0.000033 0.007519 -0.000000 -0.000000 0.000003 -8.207786 -6.751667 -1.599560 -0.077001 -0.000003 0.000080 -0.000002 -44.370110 0.345938 0.153719 -0.000000 -0.000000 0.000000 -44.423679 -3.043532 -0.076700 0.000000 -0.000002 -0.000006 -8.728667 10.710559 -0.000009 -0.000000 -0.000000 -0.000001 -0.000679 9.278123 0.000000 -0.000000 -0.000000 8.207792 -6.751710 -1.599556 -0.074518 -0.000003 0.000081 -0.000002 -44.370014 0.346960 0.148822 0.000002 0.000000 -0.000001 -44.423664 -3.044403 -0.074314 0.000000 -0.000002 -0.000004 -8.728671 10.710558 0.000007 -0.000000 -0.000000 0.000000 -0.000680 9.278137 -0.000000 0.000000 -0.000001 
0.000006 104.270477 1.554256 0.000010 0.000003 -0.000113 -0.000005 10.181587 0.131522 0.000001 -0.000003 0.000084 -0.000000 9.893967 -1.470711 0.000001 0.000000 -0.000000 -0.000000 9.220802 -1.370642 0.000000 -0.000000 -0.000000 0.000001 16.740433 -2.049030 0.000000 -0.000000 -0.000000 0.000000 9.617859 1.685014 0.000000 0.000000 0.000000 0.000002 22.037384 7.501101 0.000000 -0.000000 0.000000 -4.569968 11.014880 -2.160881 0.000008 0.000001 -0.000038 -10.592795 -0.524842 -2.231760 70.410194 63.675395 -47.317037 -27.841503 0.000002 0.000561 18.409841 98.290684 -21.225870 -28.328833 0.000022 0.000034 -0.000322 -0.000044 0.000006 -2.464924 -1.574064 2.682084 124.422728 -206.597704 166.574339 -3.215245 -1.872908 1.924484 294.396043 17.648650 345.274942 -2.654918 -1.528183 1.512834 111.087371 163.950754 164.728262 -2.018822 -1.152002 1.108048 0.000005 -0.000000 0.000003 -9.108338 -0.517845 2.260374 -5.015347 114.684204 7.756840 -3.700013 0.000024 0.001758 240.027437 38.224447 61.915446 -2.850084 -0.000076 -0.000048 257.086107 24.197953 30.119949 -2.772177 0.000001 -0.000018 -0.000002 0.000000 -0.000001 -9.532504 -0.000014 0.000552 167.830329 49.214638 205.921488 -3.700012 -0.000006 0.004276 234.684644 19.852723 37.321550 -2.950033 -0.000106 -0.001593 256.186107 19.531119 24.761864 -2.946635 -0.000005 -0.000158 0.000000 0.000003 -0.000002 -9.103500 -0.043032 -1.864517 9.910644 137.158846 -24.853486 -3.379294 -0.000045 -0.000515 239.177269 19.382801 33.492683 -2.889734 -0.000108 0.000840 253.960913 12.277656 16.297945 -2.638787 -0.000015 0.000944 0.000000 -0.000001 0.000000 -8.076540 -0.486605 -3.805668 14.313190 150.936143 -51.481499 -3.599998 -0.000032 -0.003191 225.534718 14.505162 33.305447 -2.099990 -0.000094 -0.005235 242.512751 11.394402 18.419622 -2.115779 -0.000043 -0.003680 -0.000003 -0.000001 -0.000002 4.570446 11.014691 -2.160851 -0.000018 0.000010 -0.000021 10.592533 -0.524529 -2.232401 74.266382 -62.591355 49.434276 27.841772 -0.000022 -0.000147 44.603567 -92.014307 46.036127 28.328831 -0.000032 0.000024 0.000021 -0.000089 0.000001 2.466159 -1.576018 2.681948 118.872735 225.411160 -169.002950 3.217800 -1.871812 1.916673 292.709260 -43.849739 9.312840 2.656073 -1.528627 1.514704 107.999484 199.218819 -165.113922 2.020894 -1.154068 1.115155 0.000002 0.000001 0.000004 9.109233 -0.518023 2.259989 178.654731 -60.899961 177.694557 3.699812 0.000179 -0.000089 57.936117 -143.330386 118.185550 2.849931 0.000263 0.000599 -116.157940 -20.556964 -32.459794 2.774879 -0.000014 -0.000029 -0.000001 -0.000000 0.000000 9.533224 0.000093 0.000219 -152.511977 -56.362489 -130.933538 3.699923 0.000229 0.000011 -110.994310 -21.276384 -30.566698 2.949960 0.000202 0.000192 -100.338723 -12.619863 -15.105973 2.952862 -0.000014 0.000062 -0.000002 -0.000000 0.000001 9.104351 -0.042926 -1.864893 -144.186741 -49.809530 -110.326932 3.149903 0.000279 0.000308 -109.510759 -20.008325 -28.036239 2.949941 0.000231 0.000296 -100.221121 -9.889466 -11.820876 2.644331 0.000045 0.000060 0.000001 -0.000001 0.000001 8.077589 -0.486723 -3.806066 -143.513066 -40.965685 -96.906362 3.599863 0.000274 0.014990 -108.207443 -16.092093 -22.484196 2.099964 0.000242 0.007963 -101.671068 -8.554892 -10.905829 2.125500 -0.000016 0.007517 0.000002 0.000000 0.000001 -8.207786 -6.751667 -1.599560 -0.077001 -0.000003 0.000080 -0.000002 -44.370110 0.345938 0.153719 -0.000000 -0.000000 0.000000 -44.423679 -3.043532 -0.076700 0.000000 -0.000002 -0.000006 -8.728667 10.710559 -0.000009 -0.000000 -0.000000 -0.000001 -0.000679 9.278123 0.000000 -0.000000 -0.000000 8.207792 -6.751710 -1.599556 -0.074518 -0.000003 0.000081 -0.000002 -44.370014 0.346960 0.148822 0.000002 0.000000 -0.000001 -44.423664 -3.044403 -0.074314 0.000000 -0.000002 -0.000004 -8.728671 10.710558 0.000007 -0.000000 -0.000000 0.000000 -0.000680 9.278137 -0.000000 0.000000 -0.000001 
